<?xml version="1.0" encoding="utf-8"?>
<!-- Generator: Adobe Illustrator 15.0.0, SVG Export Plug-In . SVG Version: 6.00 Build 0)  -->
<!DOCTYPE svg PUBLIC "-//W3C//DTD SVG 1.0//EN" "http://www.w3.org/TR/2001/REC-SVG-20010904/DTD/svg10.dtd">
<svg version="1.0" id="Ebene_1" xmlns="http://www.w3.org/2000/svg" xmlns:xlink="http://www.w3.org/1999/xlink" x="0px" y="0px"
	 width="300px" height="300px" viewBox="0 0 300 300" enable-background="new 0 0 300 300" xml:space="preserve">
<g>
	<path d="M287.522,101.504H14.143C34.097,45.273,87.764,5,150.833,5C213.902,5,267.569,45.273,287.522,101.504z"/>
	<path fill="#DD0000" d="M295.833,150c0,17.19-2.992,33.685-8.485,48.983H14.318C8.826,183.685,5.833,167.19,5.833,150
		c0-17.01,2.928-33.333,8.309-48.496h273.38C292.903,116.667,295.833,132.99,295.833,150z"/>
	<path fill="#FFCE00" d="M287.348,198.983C267.263,254.961,213.722,295,150.833,295S34.404,254.961,14.318,198.983H287.348z"/>
</g>
</svg>
